<?xml version="1.0" encoding="UTF-8"?>
<svg version="1.1" viewBox="0 0 1854 1211" width="1854" height="1211" xmlns="http://www.w3.org/2000/svg">
<path transform="translate(0)" d="m0 0h1854v1211h-1854z" fill="#393939"/>
<path transform="translate(919,191)" d="m0 0h18l34 2 34 5 27 6 30 9 21 8 29 13 24 13 19 12 17 12 13 10 13 11 10 9 13 12 15 16 12 14 13 17 14 20 14 24 13 25 11 26 12 36 6 24 6 36 2 18 1 18v32l-2 29-5 33-6 27-8 26-9 25-11 24-13 25-13 21-12 17-10 13-9 11-11 12-7 8-15 15-8 7-14 12-20 15-21 14-24 14-22 11-24 10-36 12-24 6-36 6-19 2-18 1h-30l-30-2-38-6-29-7-36-12-30-13-25-13-21-13-16-11-17-13-13-11-10-9-15-14-11-12-9-10-11-14-12-16-13-20-12-21-8-15-11-25-11-30-8-29-5-25-4-28-2-35v-16l2-34 4-28 5-25 7-26 10-29 11-25 12-24 12-20 10-15 14-19 9-11 12-14 29-29 11-9 12-10 18-13 15-10 24-14 26-13 27-11 31-10 24-6 29-5 15-2z" fill="#FDFDFD"/>
<path transform="translate(910,167)" d="m0 0h37l35 3 26 4 31 7 27 8 25 9 29 13 26 14 21 13 19 13 15 12 11 9 12 11 17 16 7 8 7 7 9 11 10 12 13 18 13 20 12 21 12 23 11 26 12 36 6 22 7 36 3 27 1 12v50l-3 31-5 30-7 30-12 37-9 22-14 29-15 26-14 21-12 16-11 14-12 13-9 10-16 16-8 7-14 12-18 14-21 14-13 8-21 12-31 15-27 10-28 9-30 7-30 5-32 3h-48l-32-3-30-5-29-7-26-8-22-8-25-11-23-12-17-10-17-11-17-12-16-13-15-13-10-10-8-7-9-10-8-8-9-11-12-15-12-17-12-19-12-21-9-17-12-28-9-25-8-28-6-28-4-25-3-36v-35l2-29 5-33 8-36 13-40 11-26 14-28 13-22 12-18 11-15 13-16 13-15 31-31 11-9 17-14 19-13 17-11 23-13 24-12 27-11 34-11 28-7 36-6zm9 24-34 2-39 6-25 6-26 8-27 10-33 16-18 10-22 14-30 23-10 9-8 7-26 26-9 11-10 12-13 18-10 15-14 24-13 26-11 27-10 31-7 29-5 32-2 21-1 21v16l2 35 6 39 6 25 8 27 11 28 13 28 13 23 18 27 13 17 11 13 22 24 13 12 10 9 14 11 16 12 20 13 19 11 23 12 29 12 33 11 29 7 38 6 30 2h30l30-2 33-5 27-6 26-8 25-9 26-12 23-12 21-13 17-12 13-10 11-9 12-11 8-7 15-15 7-8 12-14 15-20 14-21 14-24 12-24 11-27 11-34 6-26 5-30 2-19 1-18v-32l-2-29-5-33-6-27-9-29-9-24-12-26-10-19-14-23-13-18-10-13-11-13-9-10-12-13-16-15-14-12-20-15-24-16-21-12-17-9-28-12-25-9-29-8-31-6-22-3-34-2z" fill="#3A3A3A"/>
<path transform="translate(889,356)" d="m0 0h1l2 12 7 11 11 7 14 5 29 6 17 4 16 6 10 7 7 8 4 11v10l3 1 5 11 2 7v15l-2 7v7l6 10 8 7-1 5-7 7 1 5 2 4-6 5 3 4-1 4-3 2v15l-4 5-2 1h-15l-18-4-4 1-2 5-11 23-1 12-2-1-6-24-1-21-4-15-7-14-9-12-4-5-8-7-12-9-35-20-14-12-8-10-6-12-1-3-2 8v11l6 8 15 10 27 14 14 10 11 10 8 10 9 16 6 14 12 34 5 15 4 8 7 9 1 3 4 2 9 7 15 7v1l-12-1-13-3-16-8-15-14-13-12-14-7-29-7-10-5-7-7-1-2h-4l-8-7-4-6-1-3v-11l4-11 6-9 6-6-2-4-12-14-10-15-7-15-2-7v-15l4-8 8-7-2-8v-13l3-12 6-10 3-2-4 10 1 8 5 7 10 7 16 7 19 5 17 3 13 1h9l-15-2-17-5-13-7-10-9-5-8-3-9v-15l4-11z" fill="#3A3A3A"/>
<path transform="translate(1704)" d="m0 0h150v153h-12l-1-1-8-1v-1l-7-1-8-3-6-1v-2l-6-1-3-1v-2l-5-1-7-3-4-2v-2h-3v-2h-4v-2h-2v-2l-4-1-2-1v-2l-8-4-5-5-1-3-5-2v-2h-2l-1-4h-2l-7-8v-2l-3-1-4-7v-2h-2l-5-8v-2l-2-1-9-17-5-15-3-11-3-14z" fill="#5E5E5E"/>
<path transform="translate(910,167)" d="m0 0h37l35 3 26 4 31 7 27 8 25 9 29 13 26 14 21 13 19 13 15 12 11 9 12 11 17 16 7 8 7 7 9 11 10 12 13 18 13 20 12 21 12 23 11 26 12 36 6 22 7 36 3 27 1 12v50l-3 31-5 30-7 30-12 37-9 22-14 29-15 26-14 21-12 16-11 14-12 13-9 10-16 16-8 7-14 12-18 14-21 14-13 8-21 12-31 15-27 10-28 9-30 7-30 5-32 3h-48l-32-3-30-5-29-7-26-8-22-8-25-11-23-12-17-10-17-11-17-12-16-13-15-13-10-10-8-7-9-10-8-8-9-11-12-15-12-17-12-19-12-21-9-17-12-28-9-25-8-28-6-28-4-25-3-36v-35l2-29 5-33 8-36 13-40 11-26 14-28 13-22 12-18 11-15 13-16 13-15 31-31 11-9 17-14 19-13 17-11 23-13 24-12 27-11 34-11 28-7 36-6zm15 4-26 1-29 3-30 5-25 6-29 9-26 10-26 12-19 10-21 13-16 11-12 9-16 13-15 13-9 9-5 4-7 8-8 8-9 11-14 17-12 17-11 17-14 24-14 29-12 31-10 32-6 27-5 32-2 21-1 35 1 25 4 36 6 32 8 29 10 29 9 21 12 25 10 18 14 22 13 18 13 16 13 15 16 17 15 14 15 13 14 11 20 14 19 12 18 10 24 12 32 13 25 8 23 6 25 5 28 4 29 2h32l29-2 28-4 25-5 23-6 33-11 26-11 25-12 22-13 18-12 18-13 13-11 11-9 16-15 14-14 9-11 10-11 13-17 13-19 10-16 12-21 10-21 13-32 9-28 7-28 5-30 3-27 1-18v-29l-2-31-5-34-7-32-13-40-10-24-12-25-8-15-15-24-12-17-13-16-8-10-24-26-13-12-15-13-16-13-19-13-17-11-21-12-29-14-28-11-28-9-24-6-27-5-36-4z" fill="#FEFEFE"/>
<path transform="translate(850,423)" d="m0 0 4 2-5 4-4 5h-2l-2 11v11l6 8 15 10 27 14 14 10 11 10 8 10 9 16 6 14 12 34 5 15 4 8 7 9 1 3 4 2 9 7 15 7v1l-12-1-13-3-16-8-15-14-13-12-14-7-29-7-10-5-7-7-1-2h-4l-8-7-4-6-1-3v-11l4-11 6-9 6-6-2-4-12-14-10-15-7-15-2-7v-15l2-5 8-7 7-7z" fill="#3A3A3A"/>
<path transform="translate(847,567)" d="m0 0 2 3 4 9 4 3 18 4 25 5 16 6 14 9 13 11 18 18-2 1-8-4-9-2-30-3-17-4-16-8-9-7-11-11-8-14-4-12z" fill="#3B3B3B"/>
<path transform="translate(1043,708)" d="m0 0h12l4 18 2-3 5-14 5-1 7 19 4-16v-3h12l-2 9-8 30h-9l-5-12-1-3-6 15h-10l-9-35z" fill="#3C3C3C"/>
<path transform="translate(732,708)" d="m0 0h24l6 6v10l-2 4 2 2v12l-5 5h-26l1-3v-32l-1-3z" fill="#3B3B3B"/>
<path transform="translate(1011,708)" d="m0 0h14l7 7v26l-6 6h-16l-7-7v-25z" fill="#3B3B3B"/>
<path transform="translate(649,708)" d="m0 0h23l7 7v12l-2 2 1 10 4 1-3 7h-9l-3-3-1-9-5-1 1 13h-14l1-3z" fill="#3C3C3C"/>
<path transform="translate(900,708)" d="m0 0h18l1 8 7 28 1 3h-12l-1-9-7 1h-3l-1 8h-12l8-32z" fill="#3C3C3C"/>
<path transform="translate(962,708)" d="m0 0h23l8 7v12l-7 7h-12l1 9 1 4h-14l1-4v-30z" fill="#3C3C3C"/>
<path transform="translate(858,708)" d="m0 0h15l7 7v5l-8 3h-3l-1-5-6-1 1 21h5l1-5h11v7l-7 7h-16l-6-7v-25z" fill="#3C3C3C"/>
<path transform="translate(773,708)" d="m0 0h23l3 8-1 3-13-2v6l9-1v10l-9-1v8l10-1 6-2-3 10-1 1h-24z" fill="#3D3D3D"/>
<path transform="translate(819,708)" d="m0 0h14l7 7v5l-10 3-1-5h-6v20h6l1-5h10v8l-6 6h-16l-7-7v-25z" fill="#3B3B3B"/>
<path transform="translate(693,708)" d="m0 0h23l3 11-14-2v6l8-1v10l-8-1v8l10-1 5-2-2 9-1 2h-24z" fill="#3C3C3C"/>
<path transform="translate(1106,708)" d="m0 0h22l3 7v3l-13-1v6l8-1v10l-8-1v8l10-1 5-2-3 11h-25l1-3z" fill="#3C3C3C"/>
<path transform="translate(1181,708)" d="m0 0h14l-1 4-1 27 10-2 3-1-2 9-1 2h-22z" fill="#3C3C3C"/>
<path transform="translate(1144,708)" d="m0 0h14l-1 5-1 26 10-2 4-1-3 10-1 1h-22l1-4v-30z" fill="#3B3B3B"/>
<path transform="translate(938,787)" d="m0 0 4 1 11 22 1-22 4-1 1 1v34l-1 2-4-1-10-20-1-1-1 21-4 1-1-2v-34z" fill="#444"/>
<path transform="translate(915,787)" d="m0 0 4 1 10 33-1 3h-3l-3-8h-11l-3 8-4-1 4-16 6-19z" fill="#404040"/>
<path transform="translate(1137,787)" d="m0 0 4 1 10 33-1 3h-3l-2-9h-12l-3 9h-3l1-9 8-27z" fill="#404040"/>
<path transform="translate(975,787)" d="m0 0h11l5 3 2 7-4 1-3-5-2-1h-7l-3 3v21l2 3h11l2-10h-7v-4h10l1 1v11l-3 5-3 2h-13l-5-5v-26l4-5z" fill="#3E3E3E"/>
<path transform="translate(797,787)" d="m0 0h3v16h14v-15l4-1v37l-4-1v-16l-13 1-1 16-4-1v-35z" fill="#393939"/>
<path transform="translate(1075,787)" d="m0 0h10l5 5-1 3-6-3h-6l-2 1v5l4 3 8 4 5 6v6l-4 6-4 2-8-1-6-5 1-3 4 1 3 2h8v-7l-3-3-10-6-3-3-1-6 4-6z" fill="#404040"/>
<path transform="translate(768,787)" d="m0 0h12l5 4 1 6-3 1-3-5-2-1h-8l-3 3v21l3 3h8l3-3 2-5h3v7l-4 5-3 1h-11l-5-4-1-2v-25l4-5z" fill="#3D3D3D"/>
<path transform="translate(1e3 787)" d="m0 0h18v4h-14v12h11v4h-11v13h13l1 4h-18z" fill="#393939"/>
<path transform="translate(874,787)" d="m0 0 4 1 7 24 2-3 7-22 4 1-2 9-8 26-4 1-3-7-8-28z" fill="#3F3F3F"/>
<path transform="translate(736,787)" d="m0 0h17v4h-14v12h11v4h-11v13h14v4h-18v-36z" fill="#393939"/>
<path transform="translate(848,787)" d="m0 0h17l1 4h-14v12h11v4h-11v13h13v4h-17z" fill="#393939"/>
<path transform="translate(705,787)" d="m0 0h21v4h-8v32l-4 1-1-1v-32h-8z" fill="#434343"/>
<path transform="translate(1098,787)" d="m0 0h22v4h-8v31l-1 2-4-1v-32h-9z" fill="#434343"/>
<path transform="translate(1031,787)" d="m0 0 4 1v32h13l1 4h-18z" fill="#393939"/>
<path transform="translate(1015,717)" d="m0 0h6l1 1v19l-1 2h-6l-1-1v-20z" fill="#FEFEFE"/>
<path transform="translate(1057,787)" d="m0 0 4 1v35l-4 1z" fill="#424242"/>
<path transform="translate(866,516)" d="m0 0 7 6 8 8-3 2h-11l-3-3z" fill="#FEFEFE"/>
<path transform="translate(904,349)" d="m0 0 2 1-4 5-4 8-2 5-3-4-1-6 8-7z" fill="#404040"/>
<path transform="translate(974,717)" d="m0 0h7l1 1v6l-1 1h-7z" fill="#FEFEFE"/>
<path transform="translate(916,796)" d="m0 0 2 3 3 11h-9z" fill="#FEFEFE"/>
<path transform="translate(1138,796)" d="m0 0 2 2 3 12h-8l2-10z" fill="#FEFEFE"/>
<path transform="translate(661,717)" d="m0 0h6l1 1v7h-7z" fill="#FEFEFE"/>
<path transform="translate(744,731)" d="m0 0h6l1 1v6l-1 1h-6z" fill="#FEFEFE"/>
<path transform="translate(999,461)" d="m0 0v3l-6 7-9 5-6 3h-5l2-2 10-4 8-6z" fill="#F1F1F1"/>
<path transform="translate(744,717)" d="m0 0h6l1 5-1 1h-6z" fill="#FEFEFE"/>
<path transform="translate(870,509)" d="m0 0v3l-2 4-4 1-7 7v-3l7-8h3l1-3z" fill="#666"/>
<path transform="translate(908,720)" d="m0 0 2 1 1 9-5-1z" fill="#FEFEFE"/>
</svg>
